#!OML:ASF F:\VICON\USERDATA\INSTALL\rory3\rory3.ASF
:FULLY-SPECIFIED
:DEGREES
150
root 0.6285957478752557 17.808617792693727 34.18832617549177 1.1187577488656055 -0.7800382375778212 -0.9096714889754536
lfemur -23.89480833729873 2.125192779405724 -23.770160571205686
ltibia 47.125750104657016
lfoot 0.7100298621861748 -9.348605911560906
ltoes -9.033829070998596
rfemur -16.818866644722814 2.885254557515753 27.459059650982248
rtibia 58.52671785621702
rfoot 4.977017954937996 -4.854136662018505
rtoes -0.6114379106323518
lowerback 14.470805054406993 1.237682776182416 2.501930826667021
upperback -1.3156921031946827 2.7613890917376445 1.4059057979721779
thorax -9.265024584642095 0.9692510255147763 -0.290155273500185
lowerneck -19.81997456610004 -4.225367731449503 -2.532340902937992
upperneck 12.752146045732395 -5.661899855981722 5.591807579558813
head 7.394102354303532 -2.4848572565363263 1.5037661433641285
lclavicle 2.9801515526439752e-15 1.1900897868484632e-16
lhumerus -47.65915481952555 -10.803783663392993 96.00462141424158
lradius 111.30220576443743
lwrist 34.39215756732773
lhand -20.667030559402964 2.85670802395566
lfingers 7.125019999999999
lthumb 5.598404512156667 32.70660536866914
rclavicle 2.9801381671163078e-15 1.1900166246856291e-16
rhumerus -46.67899098270167 12.92782231783633 -97.33565006030045
rradius 110.6356322695366
rwrist -15.296996245595647
rhand -15.63454852383475 38.54736121941229
rfingers 7.125019999999999
rthumb 10.517693622467123 8.159465556411295
151
root 0.6264134327225819 17.786463138628598 34.493087055275254 1.0703337916626028 -0.7270649921277538 -0.7853405024196942
lfemur -20.415639728714563 2.9608319192350514 -22.863237001281266
ltibia 47.90982874965204
lfoot 0.6423414035389354 -8.949703743306976
ltoes -8.851347218143799
rfemur -16.67910201365394 2.8117002281803227 27.418741130335743
rtibia 58.569344892206686
rfoot 4.640638400629671 -5.112681199371135
rtoes -0.2658850759407123
lowerback 14.372917181663345 1.1039011628606534 2.114317763437883
upperback -1.3040715111156689 2.4505809789172996 1.2983742092680257
thorax -9.214588670538166 0.9927127229007789 0.05395472158561296
lowerneck -19.797402540910596 -4.1068716636612335 -2.5153284239888207
upperneck 12.691479224839322 -5.682154459311532 5.515295415458756
head 7.391766349229368 -2.4573561786912124 1.5148651521889582
lclavicle 2.9801515526439752e-15 1.1900897868484632e-16
lhumerus -47.69446218635611 -11.074909929912241 95.91567967205638
lradius 110.99978833031425
lwrist 34.34637452672784
lhand -20.62436024938572 2.9270380317612745
lfingers 7.125019999999999
lthumb 5.571438982474842 32.64929779442468
rclavicle 2.9801381671163078e-15 1.1900166246856291e-16
rhumerus -47.22661396534104 12.811646277705815 -97.4289343455703
rradius 110.3063331810603
rwrist -15.302426676667839
rhand -15.61705461018143 38.55738779204694
rfingers 7.125019999999999
rthumb 10.567420135166595 8.263628906864243
152
root 0.6177169177420978 17.73312474603017 33.250820879028716 0.923397658867841 -0.8869986994441945 -0.918056653046319
lfemur -23.92561812621983 1.9822130447584008 -24.4234262728871
ltibia 48.715562781070744
lfoot 0.7401751625383048 -8.822463666779521
ltoes -8.682482328395151
rfemur -20.405117473840146 2.0207538787901216 26.562908267009874
rtibia 59.17552975687896
rfoot 3.985157053411195 -5.436775953439984
rtoes 0.3252938077450291
lowerback 14.284456685730479 0.957818272206259 1.723969257418156
upperback -1.2693351310045777 2.116575823131004 1.2010251410449992
thorax -9.305255570582194 0.8575424323335631 0.031280556212458774
lowerneck -19.888086779865624 -4.107330661511921 -2.551618308494872
upperneck 12.668252061467358 -5.686228375390916 5.479572452952538
head 7.387093697808992 -2.443281305544048 1.511387410580689
lclavicle 2.9801515526439752e-15 1.1900897868484632e-16
lhumerus -47.211455450088145 -11.130955042503281 95.95170375717615
lradius 111.11385094056827
lwrist 34.523126794331674
lhand -20.628326951848805 2.94714089112913
lfingers 7.125019999999999
lthumb 5.542580348031866 32.60471332984617
rclavicle 2.9801381671163078e-15 1.1900166246856291e-16
rhumerus -47.76654533011936 12.674963117457912 -97.52856714923202
rradius 109.92011285171921
rwrist -15.226196257020083
rhand -15.631365725719055 38.55081143922379
rfingers 7.125019999999999
rthumb 10.548157299045942 8.289486583233538
153
root 0.617867037285098 17.71127062984207 33.58987692660703 0.8933073170204964 -0.9027829671130833 -0.8684941262375308
lfemur -18.91306140344965 3.0377813822154818 -23.06857887326855
ltibia 49.469445316182885
lfoot -0.3175303342957285 -8.670915691090078
ltoes -8.106116603694204
rfemur -21.910705423294715 1.7418131865064446 26.086210934016552
rtibia 59.03193044567038
rfoot 4.615880375042744 -5.2832626519668615
rtoes 0.6839871902426812
lowerback 14.281759719664473 0.8746519206678967 1.5165694824574114
upperback -1.163033655736564 2.0847475100463204 1.2137524921871927
thorax -9.278892761907311 0.842189997030007 0.25349173927400787
lowerneck -19.875312122523766 -4.01710856709268 -2.537618619277468
upperneck 12.581863708477675 -5.71387270354547 5.3797030143802465
head 7.407598290077567 -2.4098620461341627 1.514547350639766
lclavicle 2.9801515526439752e-15 1.1900897868484632e-16
lhumerus -47.000102284284864 -11.30572834655959 95.97913926826268
lradius 111.20930774648251
lwrist 34.35587949800135
lhand -20.6578390054142 2.9557299690490138
lfingers 7.125019999999999
lthumb 5.511608069588719 32.5555011749139
rclavicle 2.9801381671163078e-15 1.1900166246856291e-16
rhumerus -48.32644435698005 12.514081568506196 -97.62635606323636
rradius 109.77219158974708
rwrist -15.19160808816921
rhand -15.705702202721392 38.496117645500576
rfingers 7.125019999999999
rthumb 10.52471287215367 8.290064749658487
